PathFileType	4	(X/Y/Z)	Walk5.trc
DataRate	CameraRate	NumFrames	NumMarkers	Units	OrigDataRate	OrigDataStartFrame	OrigNumFrames
200.000000	200.000000	7	58	mm	200.000000	530	695
Frame#	Times		LToe		RBHD		LWRR		LElbow		LACR1		C7		RMT5		RToe		RTB2		LCAR		RTB3		LWRU		RCAR		RMT1		LElbowM		RFA1		RMMAL		LTH3		LASI		RCAL		RWRU		RLFC		LTH4		RElbow		LTB2		LMMAL		LPSI		RASI		RElbowM		LCAL		RPSI		LLFC		RTH3		LBHD		T10		LTH2		RFHD		RBack		LMT5		LUA1		RUA1		LFHD		RLMAL		RMFC		LLMAL		LMFC		RACR1		LTB1		RWRR		LTB4		LTB3		RTH4		RTB1		LMT1		RTH1		RTB4		RTH2		LTH1
			X1	Y1	Z1	X2	Y2	Z2	X3	Y3	Z3	X4	Y4	Z4	X5	Y5	Z5	X6	Y6	Z6	X7	Y7	Z7	X8	Y8	Z8	X9	Y9	Z9	X10	Y10	Z10	X11	Y11	Z11	X12	Y12	Z12	X13	Y13	Z13	X14	Y14	Z14	X15	Y15	Z15	X16	Y16	Z16	X17	Y17	Z17	X18	Y18	Z18	X19	Y19	Z19	X20	Y20	Z20	X21	Y21	Z21	X22	Y22	Z22	X23	Y23	Z23	X24	Y24	Z24	X25	Y25	Z25	X26	Y26	Z26	X27	Y27	Z27	X28	Y28	Z28	X29	Y29	Z29	X30	Y30	Z30	X31	Y31	Z31	X32	Y32	Z32	X33	Y33	Z33	X34	Y34	Z34	X35	Y35	Z35	X36	Y36	Z36	X37	Y37	Z37	X38	Y38	Z38	X39	Y39	Z39	X40	Y40	Z40	X41	Y41	Z41	X42	Y42	Z42	X43	Y43	Z43	X44	Y44	Z44	X45	Y45	Z45	X46	Y46	Z46	X47	Y47	Z47	X48	Y48	Z48	X49	Y49	Z49	X50	Y50	Z50	X51	Y51	Z51	X52	Y52	Z52	X53	Y53	Z53	X54	Y54	Z54	X55	Y55	Z55	X56	Y56	Z56	X57	Y57	Z57	X58	Y58	Z58

530	2.65	9.3312	69.078	-39.729	109.59	1610.4	-24.311	181.14	817.98	-231.63	99.659	1087.8	-256.24	169.99	1423	-132.75	79.213	1478.8	38.08	259.16	23.521	138.28	353.85	24.261	92.935	215.2	285.66	129.46	124.65	947.98	-251.4	201.1	199.19	54.318	253.59	812.12	-211.3	186.55	781.65	299.64	297.32	28.21	55.433	49.212	1079	-187.26	101.13	920.43	308.06	167.91	69.631	28.762	205.48	569.11	-118.39	182.57	1036	-133.15	86.465	32.66	51.723	118.02	801.47	274.61	201.54	524.51	146.32	189.31	661.6	-131.61	71.63	1079.4	311.38	97.184	332.52	-108.2	-92.589	186.63	-20.709	-10.87	1036.7	-4.9133	187.09	994.85	177.08	33.441	1085.5	234.38	-179.61	212.69	-61.469	-8.8778	1041.7	64.41	196.98	511.95	-112.84	194.67	571.08	151.6	111.14	1600.8	112.43	4.3778	1222.8	32.778	248.52	674.87	-90.289	285.78	1649.6	7.0275	60.013	1362.8	186.17	-54.797	77.169	-102.22	139.91	1223	-216.01	149.06	1237.4	272.45	286.04	1646.1	81.941	144.15	67.302	107.57	171.64	492.61	26.594	-111.56	189.32	-104.3	190.94	499.01	11.219	189.71	1418	191.36	163.15	385.02	-28.197	193.99	830.2	252.7	99.435	329.32	-35.342	24.688	270.54	-40.069	242.52	678.85	133.12	222.5	378.37	67.36	-39.407	69.753	-23.196	160.99	753.06	196.31	217.61	286.62	54.607	182.57	660.98	175.75	174.14	752.73	-142.35
531	2.655	24.738	69.076	-40.462	114.75	1610.9	-24.497	181.67	817.85	-232.37	102.73	1088.5	-256.09	174.98	1423.4	-132.87	84.345	1479.4	37.973	259.17	23.532	138.31	353.89	24.166	92.907	216.25	285.4	129.49	126.46	948.48	-251.72	201.71	199.06	54.299	254.06	811.23	-212.11	193.78	783.04	299.93	297.31	28.178	55.436	52.334	1080	-187.07	107.6	921.26	308.5	167.95	69.609	28.702	213.87	570.62	-118.46	187.57	1036.3	-132.9	86.487	32.684	51.705	125.03	802.4	275.05	203.62	524.34	146.46	196.73	662.97	-131.78	77.248	1080.1	311.85	108.39	333.28	-108.48	-79.678	185.23	-20.968	-5.935	1037.4	-4.8582	191.56	995.22	177.63	39.004	1086	234.82	-167.24	209.86	-61.588	-4.0193	1042.3	64.488	206.35	513.76	-113.01	197.04	570.96	151.75	116.29	1601.4	112.25	9.3569	1223.4	32.902	256.15	676.91	-90.902	290.96	1650	6.8444	65.13	1363.5	186.21	-40.073	76.721	-102.74	143.78	1223.4	-216.03	154.41	1238.2	272.61	291.23	1646.6	81.759	144.26	67.313	107.5	173.74	492.52	26.409	-98.769	187.76	-104.52	200.62	500.58	10.694	194.85	1418.8	191.28	174.28	386.7	-28.939	200.81	831.56	252.94	110.99	330.11	-35.615	36.416	270.56	-40.289	245.43	678.48	133.39	223.24	377.72	67.962	-24.179	69.451	-23.812	164.09	753.12	196.59	218.58	286.39	54.641	185.27	660.91	175.97	180.96	754.08	-142.63
532	2.66	40.379	68.981	-41.215	119.92	1611.4	-24.7	182.19	817.75	-233.15	105.81	1089.1	-255.94	179.96	1423.7	-133	89.457	1479.9	37.857	259.18	23.543	138.33	353.93	24.081	92.88	217.29	285.13	129.5	128.28	949	-252.05	202.31	198.91	54.277	254.51	810.35	-212.93	201	784.44	300.21	297.31	28.144	55.445	55.464	1081	-186.89	114.05	922.09	308.91	168	69.589	28.638	222.22	572.16	-118.51	192.54	1036.6	-132.67	86.509	32.714	51.678	132.04	803.33	275.46	205.67	524.16	146.59	204.12	664.37	-131.95	82.858	1080.8	312.31	119.61	333.99	-108.76	-66.572	183.6	-21.201	-1.0088	1038	-4.8185	196	995.54	178.17	44.563	1086.5	235.25	-154.69	206.72	-61.652	0.8292	1042.8	64.554	215.62	515.57	-113.17	199.39	570.83	151.88	121.43	1602	112.05	14.327	1224	33.022	263.72	678.96	-91.48	296.15	1650.4	6.639	70.243	1364.2	186.25	-25.106	76.126	-103.28	147.67	1223.8	-216.04	159.75	1239	272.76	296.42	1647	81.557	144.37	67.327	107.42	175.79	492.44	26.189	-85.797	185.97	-104.71	210.13	502.01	10.279	199.97	1419.5	191.18	185.44	388.36	-29.697	207.62	832.92	253.17	122.52	330.81	-35.882	48.24	270.43	-40.518	248.32	678.09	133.66	224.27	377.2	68.32	-8.7014	68.98	-24.44	167.25	753.19	196.85	219.52	286.15	54.671	187.93	660.82	176.19	187.71	755.42	-142.92
533	2.665	56.235	68.806	-41.986	125.09	1611.9	-24.919	182.73	817.68	-233.95	108.9	1089.8	-255.8	184.93	1424	-133.13	94.552	1480.5	37.732	259.19	23.555	138.35	353.96	24.005	92.856	218.32	284.87	129.5	130.1	949.53	-252.38	202.89	198.76	54.251	254.96	809.49	-213.76	208.21	785.85	300.47	297.31	28.109	55.46	58.602	1082	-186.7	120.49	922.92	309.31	168.04	69.571	28.569	230.51	573.72	-118.56	197.49	1036.9	-132.45	86.529	32.748	51.642	139.02	804.27	275.84	207.71	523.98	146.71	211.45	665.77	-132.12	88.46	1081.4	312.75	130.83	334.65	-109.03	-53.279	181.76	-21.411	3.9073	1038.6	-4.7918	200.43	995.83	178.68	50.119	1087	235.66	-141.93	203.3	-61.671	5.6679	1043.4	64.608	224.78	517.38	-113.32	201.72	570.7	152	126.59	1602.6	111.83	19.289	1224.6	33.14	271.22	681.01	-92.02	301.35	1650.8	6.4112	75.353	1364.9	186.29	-9.9098	75.391	-103.83	151.59	1224.3	-216.03	165.09	1239.7	272.91	301.62	1647.5	81.334	144.48	67.345	107.35	177.83	492.35	25.951	-72.652	183.95	-104.87	219.45	503.29	9.9871	205.09	1420.2	191.08	196.59	389.98	-30.451	214.43	834.28	253.38	134	331.43	-36.144	60.164	270.16	-40.761	251.17	677.7	133.92	225.64	376.84	68.403	7.0107	68.353	-25.077	170.51	753.26	197.11	220.45	285.9	54.698	190.57	660.72	176.39	194.37	756.76	-143.21
534	2.67	72.291	68.562	-42.772	130.26	1612.3	-25.153	183.28	817.63	-234.77	112	1090.5	-255.66	189.88	1424.3	-133.26	99.631	1481	37.599	259.2	23.567	138.37	354	23.937	92.834	219.35	284.6	129.48	131.92	950.07	-252.72	203.45	198.61	54.22	255.38	808.64	-214.61	215.39	787.26	300.73	297.3	28.073	55.481	61.75	1083	-186.53	126.91	923.75	309.68	168.09	69.554	28.493	238.74	575.3	-118.59	202.41	1037.2	-132.24	86.549	32.788	51.596	145.99	805.2	276.19	209.72	523.8	146.81	218.73	667.19	-132.29	94.055	1082.1	313.18	142.06	335.24	-109.3	-39.804	179.7	-21.604	8.8125	1039.3	-4.7759	204.83	996.07	179.18	55.669	1087.5	236.06	-128.98	199.59	-61.654	10.497	1043.9	64.653	233.82	519.18	-113.47	204.03	570.55	152.1	131.74	1603.1	111.59	24.243	1225.1	33.252	278.63	683.07	-92.523	306.56	1651.2	6.1614	80.458	1365.6	186.33	5.5035	74.527	-104.38	155.52	1224.7	-216	170.42	1240.5	273.04	306.83	1647.9	81.09	144.59	67.368	107.27	179.84	492.27	25.705	-59.336	181.73	-105.01	228.57	504.43	9.8217	210.2	1420.9	190.96	207.7	391.57	-31.181	221.24	835.63	253.59	145.42	331.97	-36.403	72.188	269.75	-41.021	254.02	677.29	134.17	227.35	376.65	68.205	22.942	67.582	-25.723	173.87	753.33	197.33	221.37	285.65	54.721	193.22	660.62	176.57	200.91	758.08	-143.5
535	2.675	88.532	68.261	-43.573	135.43	1612.8	-25.402	183.83	817.6	-235.61	115.11	1091.2	-255.52	194.83	1424.6	-133.41	104.7	1481.5	37.458	259.21	23.579	138.38	354.03	23.875	92.815	220.38	284.34	129.46	133.75	950.62	-253.06	204	198.44	54.185	255.8	807.8	-215.46	222.55	788.66	300.98	297.29	28.035	55.51	64.911	1084	-186.35	133.31	924.58	310.03	168.15	69.539	28.411	246.9	576.88	-118.63	207.3	1037.5	-132.04	86.567	32.832	51.542	152.95	806.13	276.5	211.72	523.62	146.89	225.96	668.62	-132.48	99.643	1082.8	313.6	153.29	335.78	-109.56	-26.154	177.46	-21.784	13.706	1039.8	-4.7692	209.22	996.28	179.64	61.212	1088	236.45	-115.84	195.62	-61.611	15.315	1044.4	64.69	242.75	520.97	-113.61	206.32	570.41	152.18	136.9	1603.7	111.34	29.189	1225.6	33.359	285.95	685.13	-92.991	311.77	1651.5	5.8899	85.559	1366.3	186.35	21.123	73.545	-104.94	159.47	1225	-215.97	175.75	1241.2	273.18	312.04	1648.3	80.826	144.69	67.396	107.2	181.83	492.19	25.461	-45.852	179.3	-105.14	237.48	505.44	9.7803	215.3	1421.6	190.83	218.75	393.1	-31.874	228.04	836.97	253.79	156.76	332.42	-36.661	84.315	269.21	-41.303	256.86	676.87	134.4	229.39	376.59	67.742	39.081	66.68	-26.376	177.35	753.4	197.51	222.27	285.39	54.738	195.89	660.52	176.72	207.31	759.37	-143.77
536	2.68	104.95	67.913	-44.386	140.6	1613.2	-25.664	184.39	817.59	-236.48	118.24	1091.8	-255.39	199.77	1424.8	-133.56	109.75	1481.9	37.309	259.22	23.59	138.39	354.07	23.819	92.798	221.4	284.07	129.42	135.59	951.17	-253.39	204.55	198.27	54.145	256.21	806.97	-216.32	229.69	790.05	301.21	297.28	27.994	55.546	68.088	1085	-186.19	139.7	925.39	310.36	168.21	69.526	28.322	254.99	578.47	-118.67	212.16	1037.7	-131.85	86.583	32.881	51.478	159.9	807.04	276.78	213.71	523.43	146.95	233.12	670.05	-132.67	105.22	1083.4	314.01	164.5	336.25	-109.81	-12.334	175.03	-21.957	18.587	1040.4	-4.7706	213.61	996.45	180.08	66.749	1088.4	236.84	-102.49	191.41	-61.549	20.124	1044.9	64.72	251.56	522.74	-113.75	208.61	570.25	152.24	142.06	1604.2	111.08	34.13	1226.1	33.459	293.17	687.16	-93.423	316.99	1651.8	5.5974	90.654	1367	186.37	36.937	72.453	-105.51	163.45	1225.4	-215.94	181.08	1241.9	273.31	317.26	1648.6	80.54	144.78	67.43	107.13	183.81	492.11	25.223	-32.201	176.68	-105.25	246.18	506.35	9.8522	220.4	1422.2	190.69	229.72	394.58	-32.519	234.83	838.3	253.98	168.02	332.78	-36.921	96.544	268.54	-41.605	259.69	676.43	134.61	231.7	376.66	67.055	55.416	65.663	-27.034	180.94	753.46	197.66	223.17	285.13	54.745	198.61	660.41	176.84	213.58	760.64	-144.03
